<svg width="193" height="60" viewBox="0 0 193 108" fill="none" xmlns="http://www.w3.org/2000/svg">
<path d="M13.568 28.2C13.6533 28.2853 13.7387 28.3493 13.824 28.392C13.9093 28.4347 13.9947 28.4773 14.08 28.52C15.6587 27.3253 17.344 26.088 19.136 24.808L33.152 14.888C33.6213 14.5467 34.3253 14.376 35.264 14.376C36.032 14.376 36.7573 14.5253 37.44 14.824C38.1653 15.08 38.6773 15.4427 38.976 15.912C39.232 16.296 39.36 16.68 39.36 17.064C39.36 17.6187 39.0187 18.2373 38.336 18.92L31.296 24.872L29.504 26.344C27.456 27.9653 25.9413 29.224 24.96 30.12C24.3627 30.632 23.9147 31.08 23.616 31.464C23.36 31.8053 23.232 32.168 23.232 32.552C23.232 33.064 23.5947 33.9173 24.32 35.112L25.472 36.904C28.288 41.4267 30.6987 45.1387 32.704 48.04C34.752 50.9413 37.0133 53.6933 39.488 56.296L40.576 57.512C39.8507 58.1093 39.2107 58.408 38.656 58.408C38.144 58.408 37.6533 58.216 37.184 57.832C34.24 55.656 31.616 53.4373 29.312 51.176C27.008 48.872 25.024 46.3547 23.36 43.624C22.5067 42.2587 21.44 40.7227 20.16 39.016C20.0747 38.8453 19.52 38.0347 18.496 36.584L16.64 38.12C14.2933 39.9973 12.5227 41.512 11.328 42.664C10.944 43.0053 10.6453 43.496 10.432 44.136C10.2187 44.7333 10.0907 45.3307 10.048 45.928C10.0053 46.6107 9.984 47.656 9.984 49.064L10.048 55.4C10.048 56.3813 9.94133 57.192 9.728 57.832C9.55733 58.5147 9.13067 59.0693 8.448 59.496C6.912 58.9413 5.84533 58.472 5.248 58.088C4.69333 57.704 4.30933 57.192 4.096 56.552C3.92533 55.912 3.81867 54.8453 3.776 53.352L3.52 50.088C3.30667 48.296 3.2 46.7387 3.2 45.416C3.2 43.4107 3.34933 41.4053 3.648 39.4C3.98933 37.352 4.48 34.8133 5.12 31.784C5.97333 27.4747 6.95467 23.5067 8.064 19.88C8.576 18.3013 9.28 16.6587 10.176 14.952C11.072 13.2027 11.6053 12.1573 11.776 11.816C12.0747 11.2613 12.3733 10.856 12.672 10.6C13.0133 10.344 13.3973 10.216 13.824 10.216C14.464 10.216 15.4453 10.536 16.768 11.176C17.408 11.4747 17.8347 11.752 18.048 12.008C18.304 12.264 18.432 12.584 18.432 12.968C18.432 13.352 18.304 13.9067 18.048 14.632L15.872 20.84C15.5733 21.7787 15.0827 23.1867 14.4 25.064C14.2293 25.576 13.952 26.6213 13.568 28.2Z" fill="#2B2B2B"/>
<path d="M129.72 53.672C130.872 53.4587 133.261 52.968 136.888 52.2L141.816 51.176C142.371 51.7307 142.84 52.2213 143.224 52.648C143.608 53.0747 143.8 53.4373 143.8 53.736C143.8 54.0773 143.629 54.4187 143.288 54.76C142.947 55.1013 142.264 55.656 141.24 56.424C141.112 56.5093 140.963 56.6587 140.792 56.872C140.664 57.0853 140.515 57.2133 140.344 57.256L138.616 57.704C137.165 58.1307 135.864 58.4507 134.712 58.664C133.603 58.92 132.472 59.048 131.32 59.048C127.224 59.048 123.875 57.832 121.272 55.4C120.291 54.504 119.523 53.608 118.968 52.712C118.456 51.7733 118.2 50.7707 118.2 49.704C118.2 49.2347 118.221 48.8933 118.264 48.68C118.947 44.456 119.715 40.872 120.568 37.928C121.464 34.6853 123.085 29.1813 125.432 21.416C125.944 19.5813 126.755 16.8293 127.864 13.16C128.163 12.1787 128.568 11.496 129.08 11.112C129.635 10.728 130.424 10.5787 131.448 10.664C131.661 10.664 131.853 10.6853 132.024 10.728C132.237 10.7707 132.451 10.792 132.664 10.792C135.309 11.0053 136.632 12.2853 136.632 14.632C136.632 15.2293 136.547 15.848 136.376 16.488C136.035 17.8533 135.395 19.688 134.456 21.992C131 30.7813 128.333 39.2507 126.456 47.4C126.2 48.424 126.072 49.4907 126.072 50.6C126.072 52.6907 126.989 53.736 128.824 53.736C129.208 53.736 129.507 53.7147 129.72 53.672ZM153.415 24.808C155.079 22.0347 157.66 19.6027 161.159 17.512C163.932 15.848 167.154 15.016 170.823 15.016C173.426 15.016 175.943 15.464 178.375 16.36C180.807 17.2133 182.812 18.4293 184.391 20.008C184.946 20.5627 185.543 21.096 186.183 21.608C187.164 22.4613 187.74 22.9947 187.911 23.208C190.044 25.4693 191.111 27.9653 191.111 30.696C191.111 32.8293 190.428 35.0053 189.063 37.224C187.271 40.168 185.415 42.7493 183.495 44.968C181.575 47.1867 179.42 49.0853 177.031 50.664C172.978 53.352 169.095 54.696 165.383 54.696C164.274 54.696 163.164 54.568 162.055 54.312C158.343 53.5013 155.335 51.7733 153.031 49.128C150.727 46.44 149.575 43.3893 149.575 39.976C149.575 37.3733 150.3 34.7707 151.751 32.168C151.836 31.9547 152.007 31.7413 152.263 31.528C152.562 31.3147 152.796 31.144 152.967 31.016L154.439 31.72L155.847 32.424C157.17 33.1493 158.023 33.7467 158.407 34.216C158.834 34.6853 159.047 35.3467 159.047 36.2C159.047 36.7973 158.983 37.608 158.855 38.632C158.812 39.016 158.791 39.5707 158.791 40.296C158.791 41.8747 158.983 43.7733 159.367 45.992C159.452 46.632 159.708 47.1227 160.135 47.464C160.604 47.8053 161.18 47.976 161.863 47.976C162.204 47.976 162.482 47.9547 162.695 47.912C164.7 47.528 166.407 47.08 167.815 46.568C169.266 46.056 170.567 45.288 171.719 44.264C173.852 42.4293 175.708 40.6587 177.287 38.952C178.866 37.2453 180.252 35.4107 181.447 33.448C182.258 32.0827 182.663 30.76 182.663 29.48C182.663 28.4133 182.428 27.368 181.959 26.344C181.49 25.32 180.807 24.168 179.911 22.888C178.418 20.84 176.476 19.816 174.087 19.816C173.234 19.816 172.359 19.944 171.463 20.2C171.164 20.2853 169.799 20.7333 167.367 21.544C167.111 21.6293 166.834 21.7147 166.535 21.8C166.279 21.8853 166.002 21.9707 165.703 22.056L158.407 24.168C157.468 24.4667 156.018 24.872 154.055 25.384L153.415 24.808Z" fill="#2B2B2B"/>
<path d="M57.1967 89.3119C56.8286 89.4257 56.5586 89.5015 56.3867 89.5393C55.2476 89.8719 54.3758 90.1539 53.7714 90.3852C53.4414 90.5234 53.1123 91.0381 52.7842 91.9295C52.5068 92.6786 52.4464 93.7814 52.6031 95.2378L52.531 96.1383C52.5148 96.4368 52.4509 96.7048 52.3393 96.9423C52.2696 97.0723 52.1653 97.1936 52.0262 97.3061C51.8993 97.3996 51.7577 97.4635 51.6015 97.4979C51.6796 97.4807 51.6294 97.4016 51.451 97.2607C51.0456 96.9076 50.7373 96.6232 50.526 96.4076C50.3269 96.1729 50.1912 95.8914 50.119 95.5633C50.0881 95.4227 50.0754 95.2534 50.081 95.0556C50.1075 94.804 50.1028 94.5593 50.0669 94.3215C50.0775 94.2208 50.0795 94.0811 50.0729 93.9024C50.0629 93.708 50.0676 93.5431 50.087 93.4078C50.1029 93.2569 50.0971 93.1189 50.0696 92.9939C49.9939 92.6501 49.742 92.3615 49.3138 92.1281C48.6828 91.7919 48.326 91.4362 48.2435 91.0612C48.1472 90.6237 48.4015 90.1417 49.0066 89.6154C49.0622 89.5704 49.1361 89.4968 49.2283 89.3946C49.3361 89.2889 49.4351 89.218 49.5255 89.1817C49.8364 89.0314 50.0381 88.8313 50.1306 88.5816C50.2387 88.3285 50.3045 87.9945 50.3279 87.5798C50.3978 86.4831 50.4818 85.3015 50.5798 84.0348L50.6519 83.1342C50.6591 83.018 50.7003 82.7959 50.7756 82.4681C51.4597 82.3011 51.9854 82.382 52.3527 82.7108C52.7355 83.0361 52.9958 83.5113 53.1333 84.1363C53.154 84.2301 53.1693 84.3741 53.1793 84.5685L53.1747 85.5525L53.1475 86.0991L53.1866 87.393L54.4495 87.2133L57.483 86.816L57.7382 84.1795L57.7504 83.3413C58.0728 82.6478 58.4403 82.4195 58.8529 82.6563C59.2464 82.881 59.6016 83.1551 59.9185 83.4785C60.2476 83.7829 60.4638 84.1695 60.567 84.6382C60.6667 85.0914 60.6611 85.6988 60.5502 86.4604C60.6924 86.511 60.8564 86.5487 61.042 86.5734C61.2242 86.5824 61.3483 86.5879 61.4142 86.5897C61.9296 86.6238 62.3407 86.7053 62.6476 86.8343C62.9545 86.9634 63.1925 87.2632 63.3617 87.7339C63.2395 88.0721 63.0325 88.3224 62.7406 88.4849C62.4487 88.6475 62.0866 88.7517 61.6544 88.7977C61.4947 88.8165 61.2899 88.8534 61.0398 88.9084C60.6961 88.9841 60.485 89.1042 60.4065 89.269C60.3281 89.4337 60.2675 89.791 60.2247 90.3411L60.1447 91.3171C60.0379 92.6185 59.9794 93.6553 59.9691 94.4275C59.9745 95.1964 60.0336 95.9861 60.1465 96.7968C60.1603 96.8593 60.1817 96.9938 60.2108 97.2004C60.252 97.3879 60.2378 97.5467 60.1682 97.6767C60.1019 97.8224 59.9672 97.9175 59.7641 97.9622C59.2587 98.1226 58.886 97.9179 58.646 97.3482C58.0887 96.6026 57.7258 95.8469 57.5573 95.0812C57.485 94.7531 57.4456 94.4996 57.4391 94.3209C57.3908 93.283 57.3371 91.9596 57.2779 90.3507L57.1967 89.3119ZM65.8477 84.0412C66.2336 82.8914 66.9829 81.7927 68.0957 80.745C68.9773 79.912 70.09 79.3477 71.4338 79.0519C72.387 78.8421 73.3451 78.8033 74.308 78.9354C75.2674 79.0519 76.0999 79.3356 76.8053 79.7865C77.0531 79.945 77.3149 80.0921 77.5905 80.2281C78.0187 80.4615 78.2727 80.6104 78.3524 80.6748C79.3159 81.331 79.9078 82.1591 80.1279 83.1592C80.2998 83.9405 80.2252 84.7924 79.904 85.7151C79.485 86.9377 79.0133 88.0327 78.489 89C77.9647 89.9673 77.3286 90.8363 76.5808 91.6071C75.313 92.9182 73.9993 93.7234 72.6399 94.0226C72.2336 94.112 71.817 94.1546 71.3901 94.1502C69.9653 94.1525 68.7244 93.7621 67.6673 92.979C66.6069 92.1803 65.9391 91.1559 65.6639 89.9058C65.4542 88.9526 65.51 87.941 65.8315 86.8708C65.8456 86.7858 65.8909 86.6939 65.9674 86.5952C66.0596 86.493 66.1318 86.4116 66.184 86.3509L66.7798 86.4901L67.3522 86.6344C67.8951 86.7935 68.2558 86.9435 68.4342 87.0844C68.6283 87.2219 68.7598 87.4469 68.8286 87.7594C68.8767 87.9782 68.9186 88.2802 68.9543 88.6656C68.9696 88.8097 69.0065 89.0145 69.065 89.2802C69.1922 89.8583 69.4156 90.5382 69.735 91.3198C69.8179 91.5473 69.9512 91.7064 70.1349 91.797C70.3343 91.8842 70.559 91.9003 70.8091 91.8452C70.9341 91.8177 71.0339 91.7875 71.1086 91.7547C71.8121 91.4525 72.401 91.1508 72.8754 90.8498C73.3654 90.5454 73.7801 90.1592 74.1195 89.6913C74.7529 88.8475 75.2899 88.0494 75.7305 87.2971C76.1711 86.5448 76.5311 85.7611 76.8104 84.946C76.9972 84.3806 77.0391 83.8636 76.9359 83.3948C76.8499 83.0041 76.6797 82.6402 76.4253 82.303C76.1709 81.9658 75.828 81.5989 75.3967 81.2024C74.6847 80.5727 73.8912 80.3542 73.0161 80.5467C72.7036 80.6155 72.3936 80.7329 72.0861 80.8989C71.9836 80.9542 71.5196 81.2283 70.6943 81.7213C70.6074 81.7731 70.5127 81.8268 70.4102 81.8821C70.3234 81.934 70.2287 81.9876 70.1262 82.0429L67.6243 83.4045C67.3046 83.5895 66.806 83.8549 66.1285 84.2006L65.8477 84.0412ZM95.2472 83.911C95.2285 83.7513 95.183 83.5073 95.1108 83.1792C95.1023 83.0664 95.0706 82.885 95.0155 82.6349L94.5899 83.2693C94.2296 83.7909 93.9468 84.1808 93.7415 84.439C93.4406 84.7837 93.1556 84.9775 92.8865 85.0203C92.2668 85.1076 91.7158 85.0978 91.2335 84.9909C90.7635 84.865 90.3623 84.5683 90.0301 84.1008L88.5195 81.9267C88.5073 81.9457 88.4724 82.0107 88.4149 82.1217C88.3696 82.2136 88.3417 82.3098 88.3311 82.4105C88.0046 84.2025 87.6866 86.1074 87.3771 88.1251C87.2012 89.2615 87.0783 90.378 87.0084 91.4746C86.9887 91.7575 86.8972 91.9742 86.7338 92.1249C86.5859 92.2721 86.3714 92.3766 86.0901 92.4385C85.637 92.5383 85.1712 92.4688 84.6927 92.23C84.2298 91.9879 83.9468 91.6324 83.8436 91.1636C83.8058 90.9917 83.8036 90.7956 83.837 90.5753C83.9813 89.5933 84.0817 88.8586 84.1382 88.371C84.464 86.0549 84.7654 84.1864 85.0425 82.7656C85.3318 81.3258 85.7642 79.9036 86.3398 78.4991C86.5613 77.9424 86.7086 77.6069 86.7818 77.4925C86.9874 77.0869 87.3011 76.8376 87.723 76.7447C87.8168 76.7241 87.9452 76.7122 88.1084 76.7091C88.7766 76.6931 89.2321 76.7157 89.4749 76.7769C89.7299 76.8191 89.9223 76.9488 90.052 77.166C90.1939 77.3641 90.3901 77.7715 90.6404 78.3881L91.7175 81.272C92.0044 81.0122 92.3045 80.6267 92.6179 80.1154C92.9436 79.585 93.2354 79.0129 93.4935 78.3991C93.4604 78.4719 93.6338 78.1061 94.0138 77.3016C94.1409 77.0606 94.3161 76.7026 94.5392 76.2276C94.7223 75.7941 95.0326 75.5292 95.4701 75.4329C95.6264 75.3985 95.7878 75.3876 95.9544 75.4C96.5444 75.4012 96.992 75.4993 97.297 75.6943C97.6021 75.8893 97.8062 76.2212 97.9094 76.69C97.9713 76.9713 98.0036 77.2672 98.0065 77.5779L98.0507 80.1239C98.1241 83.286 98.1709 85.0615 98.1909 85.4502L98.4003 89.975C98.456 90.7491 98.5205 91.8981 98.5938 93.422C98.616 93.5973 98.6146 93.8515 98.5896 94.1847C98.5737 94.3356 98.5567 94.5933 98.5386 94.9577C98.5205 95.3221 98.525 95.6406 98.5522 95.9131C98.5795 96.1856 98.5443 96.3982 98.4468 96.5507C98.3528 96.7188 98.1825 96.8382 97.9359 96.9089C97.6424 96.9898 97.3847 96.9728 97.1628 96.8578C96.9444 96.7585 96.7964 96.5699 96.7188 96.292L96.3549 94.7502C96.2414 94.2346 96.1514 93.7138 96.0848 93.1878C95.889 91.3304 95.7193 89.4428 95.5757 87.5248L95.2472 83.911ZM105.997 78.1785L106.815 77.8756C107.403 77.6477 107.805 77.5019 108.021 77.4381L108.573 77.2674C108.757 77.2105 108.988 77.1433 109.266 77.0658C109.544 76.9883 109.862 76.91 110.222 76.8309C110.565 76.7552 110.817 76.708 110.977 76.6892C111.534 76.6157 111.972 76.7077 112.291 76.9652C112.625 77.2193 112.885 77.6537 113.069 78.2684C113.007 78.2822 112.911 78.295 112.783 78.3069C112.654 78.3187 112.549 78.3255 112.468 78.327C112.013 78.3452 111.606 78.3938 111.247 78.4729C110.825 78.5658 110.43 78.7099 110.064 78.9053C109.133 79.4379 107.923 80.048 106.436 80.7357C106.157 80.8792 105.95 81.0558 105.816 81.2655C105.694 81.4561 105.642 81.7051 105.661 82.0123C105.698 82.6267 105.711 83.2463 105.701 83.871C105.712 84.442 105.726 84.9141 105.743 85.2872C105.754 85.4157 105.783 85.5815 105.827 85.7846C105.869 85.9721 105.898 86.105 105.915 86.1831C106.175 86.1749 106.438 86.1416 106.704 86.0832C107.22 85.9697 107.83 85.7288 108.536 85.3606C109.838 84.7298 111.144 84.0739 112.452 83.3928L114.886 82.169C115.654 81.7871 116.255 81.4664 116.689 81.2069C117.643 80.7021 118.335 80.3452 118.764 80.136C118.944 80.0635 119.082 80.017 119.175 79.9963C119.566 79.9103 119.858 80.0099 120.052 80.2949C120.123 80.3939 120.17 80.4982 120.194 80.6075C120.236 80.795 120.213 80.9885 120.126 81.1879C120.038 81.3873 119.897 81.5658 119.703 81.7233C119.433 81.9136 119.056 82.1359 118.572 82.39C117.168 83.1577 115.931 83.8641 114.86 84.5092C112.768 85.7233 111.208 86.5991 110.18 87.1367C109.77 87.358 109.138 87.6118 108.283 87.8982L107.442 88.2063C106.924 88.3857 106.408 88.3109 105.893 87.9818L105.378 87.6528C104.756 87.2819 104.265 86.9477 103.905 86.6502C103.643 86.4292 103.476 86.0809 103.404 85.6053C103.331 85.0481 103.248 84.1897 103.157 83.0302L103.086 82.2596L103.001 81.5409C102.501 81.5034 102.096 81.4124 101.786 81.2677C101.488 81.104 101.279 80.7894 101.161 80.3241C101.647 80.1515 102.015 80.0377 102.265 79.9827C102.543 79.9052 102.754 79.785 102.898 79.6222C103.043 79.4593 103.131 79.227 103.163 78.9251C103.211 78.3247 103.318 77.4329 103.483 76.2496C103.519 75.8159 103.575 75.3283 103.653 74.787C103.676 74.5198 103.662 74.1952 103.61 73.8133C103.549 73.5321 103.563 73.2995 103.654 73.1158C103.756 72.9129 103.946 72.732 104.222 72.5729C105.548 71.8224 107.326 71.0789 109.555 70.3424C110.288 70.0992 111.025 69.9124 111.767 69.782C112.798 69.555 113.65 69.7772 114.322 70.4484C114.503 70.605 114.629 70.8395 114.698 71.152C114.729 71.2927 114.735 71.3977 114.718 71.4671C114.672 71.7065 114.573 71.9249 114.42 72.1225C114.279 72.3009 114.075 72.4194 113.81 72.4778L112.901 72.7025C112.47 72.83 112.153 72.9161 111.95 72.9609C111.513 73.0571 111.199 73.0444 111.008 72.9225C110.741 72.7519 110.443 72.7027 110.115 72.7749C110.022 72.7955 109.869 72.8455 109.657 72.9249L107.455 73.9747L106.569 74.4155L105.997 78.1785Z" fill="#2B2B2B"/>
<path d="M80 60C93.8071 60 105 48.8071 105 35C105 21.1929 93.8071 10 80 10C66.1929 10 55 21.1929 55 35C55 48.8071 66.1929 60 80 60Z" stroke="#006400" stroke-width="3"/>
<path d="M80 52C89.3888 52 97 44.3888 97 35C97 25.6112 89.3888 18 80 18C70.6112 18 63 25.6112 63 35C63 44.3888 70.6112 52 80 52Z" stroke="#00A000" stroke-width="3"/>
<path d="M80 43C84.4183 43 88 39.4183 88 35C88 30.5817 84.4183 27 80 27C75.5817 27 72 30.5817 72 35C72 39.4183 75.5817 43 80 43Z" stroke="#7CFC00" stroke-width="3"/>
</svg>
