<svg xmlns="http://www.w3.org/2000/svg" version="1.1" xmlns:xlink="http://www.w3.org/1999/xlink" width="1000" height="1000"><metadata><rdf:RDF xmlns:rdf="http://www.w3.org/1999/02/22-rdf-syntax-ns#" xmlns:dc="http://purl.org/dc/elements/1.1/"><rdf:Description><dc:creator>RealFaviconGenerator</dc:creator><dc:source>https://realfavicongenerator.net</dc:source></rdf:Description></rdf:RDF></metadata><g clip-path="url(#SvgjsClipPath1504)"><rect width="1000" height="1000" fill="#ffffff"></rect><g transform="matrix(22.22222222222222,0,0,22.22222222222222,0,0)"><svg xmlns="http://www.w3.org/2000/svg" width="45" height="45" viewBox="0 0 45 45" fill="none"><path d="M22.5 43.5C34.098 43.5 43.5 34.098 43.5 22.5C43.5 10.902 34.098 1.5 22.5 1.5C10.902 1.5 1.5 10.902 1.5 22.5C1.5 34.098 10.902 43.5 22.5 43.5Z" stroke="#006400" stroke-width="3"></path><path d="M22.5 36.5C30.232 36.5 36.5 30.232 36.5 22.5C36.5 14.768 30.232 8.5 22.5 8.5C14.768 8.5 8.5 14.768 8.5 22.5C8.5 30.232 14.768 36.5 22.5 36.5Z" stroke="#00A000" stroke-width="3"></path><path d="M22.5 28.5C25.8137 28.5 28.5 25.8137 28.5 22.5C28.5 19.1863 25.8137 16.5 22.5 16.5C19.1863 16.5 16.5 19.1863 16.5 22.5C16.5 25.8137 19.1863 28.5 22.5 28.5Z" stroke="#7CFC00" stroke-width="3"></path></svg></g></g><defs><clipPath id="SvgjsClipPath1504"><rect width="1000" height="1000" x="0" y="0" rx="500" ry="500"></rect></clipPath></defs></svg>